<svg version="1.1" xmlns="http://www.w3.org/2000/svg" width="600" height="600">
<path d="M0 0 C0 3.63512719 -1.01258823 5.23516923 -2.74609375 8.41796875 C-3.33189209 9.49981445 -3.91769043 10.58166016 -4.52124023 11.69628906 C-5.15360596 12.84838867 -5.78597168 14.00048828 -6.4375 15.1875 C-7.08386698 16.37573065 -7.72977993 17.5642084 -8.37524414 18.75292969 C-12.18055951 25.74643371 -16.05857117 32.69682154 -19.99975586 39.61450195 C-23.58712628 45.95142262 -26.81244075 52.4541194 -30 59 C-31 61 -31 61 -32.4375 62.875 C-33.8970188 64.85994556 -34.93180873 66.78963018 -36 69 C-34.93563721 68.96970703 -33.87127441 68.93941406 -32.7746582 68.90820312 C-28.81439165 68.7956761 -24.85409939 68.68407701 -20.89379883 68.57275391 C-19.18187764 68.52450341 -17.46996347 68.47600345 -15.75805664 68.42724609 C-13.29314967 68.35708609 -10.82821863 68.28783213 -8.36328125 68.21875 C-7.60163162 68.19687622 -6.83998199 68.17500244 -6.05525208 68.15246582 C-2.36898349 68.05001579 1.3122496 67.97450129 5 68 C5 71.26115629 4.68236531 72.27617044 3 75 C1.33333333 76.66666667 -0.33333333 78.33333333 -2 80 C-2.495 80.825 -2.99 81.65 -3.5 82.5 C-5 85 -5 85 -7.30078125 87.2734375 C-10.06580355 90.06647016 -12.35505066 92.96490734 -14.6875 96.125 C-15.45449219 97.15882813 -16.22148437 98.19265625 -17.01171875 99.2578125 C-18.37970722 101.1445078 -19.70729721 103.06094582 -21 105 C-22.04737004 106.22147112 -23.11166023 107.42852832 -24.1875 108.625 C-31.30514115 115.57025418 -31.30514115 115.57025418 -35 124 C-36.1554536 125.17890377 -37.31703647 126.35235113 -38.50683594 127.49658203 C-41.27295543 130.28169711 -43.67035235 133.37908671 -46.125 136.4375 C-46.68469482 137.13254639 -47.24438965 137.82759277 -47.82104492 138.54370117 C-48.97680416 139.98134495 -50.13101404 141.42023563 -51.28369141 142.86035156 C-52.94532966 144.93184483 -54.61826798 146.99375035 -56.29296875 149.0546875 C-57.3000791 150.30680936 -58.3066172 151.55939178 -59.3125 152.8125 C-59.7863916 153.39249756 -60.2602832 153.97249512 -60.74853516 154.57006836 C-63.44789736 157.86198538 -63.44789736 157.86198538 -64 162 C-64.59941406 162.24105469 -65.19882813 162.48210937 -65.81640625 162.73046875 C-68.44241952 164.25722065 -69.37048693 165.72974993 -70.9375 168.3125 C-73.237776 172.08649043 -75.87346257 174.88276774 -79 178 C-80.75692512 180.13612729 -82.41097572 182.34430124 -84.0625 184.5625 C-86.83575017 188.27857029 -89.61901247 191.80641131 -93 195 C-93.66 194.01 -94.32 193.02 -95 192 C-94.37158203 191.05833984 -94.37158203 191.05833984 -93.73046875 190.09765625 C-91.45673358 186.02751631 -89.90760622 181.80988928 -88.3125 177.4375 C-87.99216797 176.58736328 -87.67183594 175.73722656 -87.34179688 174.86132812 C-87.03951172 174.03955078 -86.73722656 173.21777344 -86.42578125 172.37109375 C-86.15161377 171.62786865 -85.87744629 170.88464355 -85.5949707 170.11889648 C-84.81977495 167.72496353 -84.81977495 167.72496353 -85 164 C-84.566875 163.29875 -84.13375 162.5975 -83.6875 161.875 C-81.65081672 158.40509515 -80.76049659 154.9835915 -79.74609375 151.109375 C-79 149 -79 149 -77 148 C-76.76943912 146.02376393 -76.5428733 144.04682729 -76.3515625 142.06640625 C-75.87756993 139.28038327 -74.53668351 137.33843142 -73 135 C-73 134.01 -73 133.02 -73 132 C-72.34 132 -71.68 132 -71 132 C-70.9175 130.865625 -70.835 129.73125 -70.75 128.5625 C-70.23610134 124.43683471 -68.90133551 121.18315535 -67.12109375 117.453125 C-65.12354414 113.0821802 -63.59221732 108.53104396 -62 104 C-62.86238281 104.08378906 -63.72476563 104.16757812 -64.61328125 104.25390625 C-75.16936858 105.1345091 -85.44234622 104.73869483 -96 104 C-96.33 102.68 -96.66 101.36 -97 100 C-96.34 100 -95.68 100 -95 100 C-95.33 99.01 -95.66 98.02 -96 97 C-95.33498521 94.9133171 -94.65773923 92.82986154 -93.92446899 90.76617432 C-92.08148037 85.25162723 -90.8080186 79.5718828 -89.41796875 73.9296875 C-89.07825637 72.56266727 -88.73818616 71.19573592 -88.39778137 69.82888794 C-87.50437587 66.23824181 -86.61499859 62.64661128 -85.72674561 59.0546875 C-77.45861583 25.63403663 -77.45861583 25.63403663 -73.55078125 10.5078125 C-73.30450485 9.54567841 -73.05822845 8.58354431 -72.80448914 7.59225464 C-72.46681267 6.29579514 -72.46681267 6.29579514 -72.12231445 4.97314453 C-71.92829544 4.22404816 -71.73427643 3.47495178 -71.53437805 2.70315552 C-71 1 -71 1 -70 0 C-68.11028879 -0.12879331 -66.21583435 -0.18849587 -64.32202148 -0.22119141 C-62.49893715 -0.25595078 -62.49893715 -0.25595078 -60.63902283 -0.29141235 C-59.29971723 -0.31173382 -57.96040737 -0.33177678 -56.62109375 -0.3515625 C-55.25162815 -0.37468199 -53.88216711 -0.39807236 -52.51271057 -0.42172241 C-49.6334341 -0.47027302 -46.7541286 -0.51517198 -43.87475586 -0.55761719 C-40.2018987 -0.61209502 -36.52927883 -0.67600202 -32.85662746 -0.74279213 C-30.02293309 -0.79316862 -27.18917189 -0.83816808 -24.35536385 -0.88163376 C-22.3480579 -0.91343724 -20.3408277 -0.94991217 -18.33360291 -0.98648071 C-12.10936683 -1.07132753 -6.14898071 -1.00058093 0 0 Z " fill="#3F7951" transform="translate(317,191)"/>
<path d="M0 0 C0.66 0 1.32 0 2 0 C2.84948989 16.97053493 3.08096232 33.82926352 2.625 50.8125 C2.60357941 51.66394592 2.58215881 52.51539185 2.56008911 53.39263916 C2.49720124 55.81018549 2.42632769 58.22732586 2.3515625 60.64453125 C2.33166763 61.37544479 2.31177277 62.10635834 2.29127502 62.85942078 C2.11652018 67.88347982 2.11652018 67.88347982 1 69 C-0.92667507 69.08748207 -2.85651861 69.10697334 -4.78515625 69.09765625 C-6.53989258 69.09282227 -6.53989258 69.09282227 -8.33007812 69.08789062 C-9.56177734 69.07951172 -10.79347656 69.07113281 -12.0625 69.0625 C-13.91584961 69.05573242 -13.91584961 69.05573242 -15.80664062 69.04882812 C-18.87114117 69.03699608 -21.93554721 69.02051173 -25 69 C-26.47339688 62.79602874 -26.2633105 56.51843261 -26.19750977 50.18286133 C-26.19089227 48.69844397 -26.20358574 47.21380188 -26.23657227 45.72973633 C-26.46350571 35.07812189 -24.92045619 29.24561789 -17.48364258 21.47338867 C-16.2542395 20.24906128 -16.2542395 20.24906128 -15 19 C-14.06000008 17.83894419 -13.1406266 16.66001297 -12.265625 15.44921875 C-8.37235635 10.1148371 -4.50585081 4.83554721 0 0 Z " fill="#3F7952" transform="translate(288,323)"/>
<path d="M0 0 C17.49 0 34.98 0 53 0 C54.20217503 2.40435006 54.03897118 3.68381369 53.87890625 6.3515625 C53.83056641 7.20234375 53.78222656 8.053125 53.73242188 8.9296875 C53.67634766 9.81914062 53.62027344 10.70859375 53.5625 11.625 C53.51029297 12.5221875 53.45808594 13.419375 53.40429688 14.34375 C53.2744565 16.56284012 53.13948661 18.78149871 53 21 C45.08123253 21.15371916 37.16238929 21.30190064 29.24338722 21.4429636 C25.56649721 21.50863598 21.88966339 21.57623368 18.21289062 21.64819336 C14.66628415 21.71753528 11.1196193 21.78186953 7.5728569 21.84269524 C6.21800804 21.86681786 4.86319036 21.89276147 3.50841141 21.92053413 C1.61458557 21.95904959 -0.27937886 21.99055898 -2.17333984 22.02172852 C-3.25255707 22.04171402 -4.33177429 22.06169952 -5.44369507 22.08229065 C-8 22 -8 22 -10 21 C-10.25 18.75 -10.25 18.75 -10 16 C-8.68 14.68 -7.36 13.36 -6 12 C-4.02 8.04 -2.04 4.08 0 0 Z " fill="#407750" transform="translate(330,191)"/>
<path d="M0 0 C1.89150787 0.03014442 1.89150787 0.03014442 3.82122803 0.06089783 C5.19234439 0.08809202 6.56345844 0.11540289 7.93457031 0.14282227 C9.34132099 0.16713607 10.74807988 0.190979 12.15484619 0.21437073 C15.85057963 0.27708632 19.546167 0.34618811 23.24176025 0.41662598 C27.01559824 0.48742284 30.78953948 0.55217178 34.56347656 0.61743164 C41.96333273 0.74628247 49.36302691 0.8824399 56.76269531 1.02172852 C56.76269531 6.63172852 56.76269531 12.24172852 56.76269531 18.02172852 C51.16581689 18.16663152 45.5689411 18.30979478 39.97192383 18.44897461 C38.0783452 18.49653352 36.18478905 18.54499792 34.29125977 18.59448242 C23.96917243 18.86358712 13.65112468 19.06914641 3.32519531 19.08422852 C2.47125687 19.08652466 1.61731842 19.0888208 0.73750305 19.09118652 C-5.63061168 19.08325874 -11.90707751 18.7556679 -18.23730469 18.02172852 C-18.23730469 16.70172852 -18.23730469 15.38172852 -18.23730469 14.02172852 C-17.57730469 14.02172852 -16.91730469 14.02172852 -16.23730469 14.02172852 C-15.98980469 13.17610352 -15.74230469 12.33047852 -15.48730469 11.45922852 C-14.06489642 7.54760579 -12.54901078 4.48928765 -10.23730469 1.02172852 C-6.91368352 -0.30899437 -3.53699724 -0.06366595 0 0 Z " fill="#407751" transform="translate(326.2373046875,215.978271484375)"/>
<path d="M0 0 C1.12492355 0.00848969 2.24984711 0.01697937 3.40885925 0.02572632 C6.99620976 0.05927057 10.58129949 0.13455895 14.16796875 0.2109375 C16.60218105 0.24103545 19.03642863 0.26841154 21.47070312 0.29296875 C27.43316064 0.3590665 33.39393162 0.4626019 39.35546875 0.5859375 C39.35546875 6.5259375 39.35546875 12.4659375 39.35546875 18.5859375 C31.74928095 18.73939049 24.14302924 18.88819988 16.53659534 19.0289011 C13.00439481 19.09442285 9.4722569 19.16195597 5.94018555 19.23413086 C1.87688994 19.31707178 -2.18652549 19.3911829 -6.25 19.46484375 C-7.51474655 19.49187881 -8.7794931 19.51891388 -10.08256531 19.54676819 C-11.26341202 19.56686447 -12.44425873 19.58696075 -13.66088867 19.60766602 C-14.69791428 19.62765152 -15.73493988 19.64763702 -16.8033905 19.66822815 C-19.53753847 19.58903643 -21.98651284 19.209355 -24.64453125 18.5859375 C-24.33515625 17.9878125 -24.02578125 17.3896875 -23.70703125 16.7734375 C-22.54243421 14.49636978 -22.54243421 14.49636978 -21.64453125 11.5859375 C-20.00084985 9.89659828 -18.33024365 8.23333826 -16.64453125 6.5859375 C-16.00298096 5.55259277 -15.36143066 4.51924805 -14.70043945 3.45458984 C-10.88844802 -1.12501177 -5.5036784 -0.15639857 0 0 Z " fill="#417952" transform="translate(320.64453125,295.4140625)"/>
<path d="M0 0 C0 5.61 0 11.22 0 17 C-15.18 17 -30.36 17 -46 17 C-44.35386957 13.70773915 -42.66386041 10.93363323 -40.5625 7.9375 C-39.66724609 6.65166016 -39.66724609 6.6516016 -38.75390625 5.33984375 C-34.86272643 0.14871521 -34.86272643 0.14871521 -31.3996582 -0.44824219 C-30.37702881 -0.48079102 -29.35439941 -0.51333984 -28.30078125 -0.546875 C-26.60985352 -0.60681641 -26.60985352 -0.60681641 -24.88476562 -0.66796875 C-23.70591797 -0.69503906 -22.52707031 -0.72210938 -21.3125 -0.75 C-19.57323242 -0.81380859 -19.57323242 -0.81380859 -17.79882812 -0.87890625 C-11.6147602 -1.06875257 -6.22508241 -0.7781353 0 0 Z " fill="#407750" transform="translate(360,274)"/>
<path d="M0 0 C0.99 0.33 1.98 0.66 3 1 C2.67 9.91 2.34 18.82 2 28 C-1.63 28 -5.26 28 -9 28 C-11.4363124 23.1273752 -10.94812974 17.21206516 -10 12 C-7.50304044 7.35978589 -3.74418168 3.65057713 0 0 Z " fill="#3F7550" transform="translate(255,364)"/>
</svg>
